<?xml version="1.0" encoding="UTF-8" standalone="no"?>
<svg
   xmlns:dc="http://purl.org/dc/elements/1.1/"
   xmlns:cc="http://creativecommons.org/ns#"
   xmlns:rdf="http://www.w3.org/1999/02/22-rdf-syntax-ns#"
   xmlns:svg="http://www.w3.org/2000/svg"
   xmlns="http://www.w3.org/2000/svg"
   xmlns:xlink="http://www.w3.org/1999/xlink"
   xmlns:sodipodi="http://sodipodi.sourceforge.net/DTD/sodipodi-0.dtd"
   xmlns:inkscape="http://www.inkscape.org/namespaces/inkscape"
   version="1.1"
   id="svg1570"
   xml:space="preserve"
   width="1706.6667"
   height="1764.72"
   viewBox="0 0 1706.6667 1764.72"
   sodipodi:docname="AR.svg"
   inkscape:version="1.0.2-2 (e86c870879, 2021-01-15)"
   inkscape:export-filename="C:\Users\migue\Desktop\AR.svg.png"
   inkscape:export-xdpi="96"
   inkscape:export-ydpi="96"><metadata
     id="metadata1576"><rdf:RDF><cc:Work
         rdf:about=""><dc:format>image/svg+xml</dc:format><dc:type
           rdf:resource="http://purl.org/dc/dcmitype/StillImage" /><dc:title /></cc:Work></rdf:RDF></metadata><defs
     id="defs1574"><linearGradient
       inkscape:collect="always"
       id="linearGradient957"><stop
         style="stop-color:#096952;stop-opacity:0.42857143"
         offset="0"
         id="stop953" /><stop
         style="stop-color:#000a13;stop-opacity:1"
         offset="1"
         id="stop955" /></linearGradient><clipPath
       clipPathUnits="userSpaceOnUse"
       id="clipPath1764"><path
         d="M 0,1323.542 H 1280 V 0 H 0 Z"
         id="path1762" /></clipPath><radialGradient
       inkscape:collect="always"
       xlink:href="#linearGradient957"
       id="radialGradient961"
       cx="853.33301"
       cy="882.35938"
       fx="853.33301"
       fy="882.35938"
       r="883.88379"
       gradientTransform="matrix(0.92250113,-1.4748468e-8,1.8204312e-8,1.0324993,66.13233,-28.676031)"
       gradientUnits="userSpaceOnUse" /><filter
       inkscape:collect="always"
       style="color-interpolation-filters:sRGB"
       id="filter1040"
       x="-4.1249314e-05"
       width="1.0000825"
       y="-2.3571654e-05"
       height="1.0000471"><feGaussianBlur
         inkscape:collect="always"
         stdDeviation="0.0088424195"
         id="feGaussianBlur1042" /></filter></defs><sodipodi:namedview
     pagecolor="#ffffff"
     bordercolor="#666666"
     borderopacity="1"
     objecttolerance="10"
     gridtolerance="10"
     guidetolerance="10"
     inkscape:pageopacity="0"
     inkscape:pageshadow="2"
     inkscape:window-width="1366"
     inkscape:window-height="697"
     id="namedview1572"
     showgrid="false"
     inkscape:zoom="0.15474214"
     inkscape:cx="257.02604"
     inkscape:cy="998.2889"
     inkscape:window-x="-8"
     inkscape:window-y="-8"
     inkscape:window-maximized="1"
     inkscape:current-layer="svg1570"
     inkscape:document-rotation="0" /><g
     inkscape:groupmode="layer"
     id="layer3"
     inkscape:label="fondo"
     style="display:none;opacity:1"><rect
       style="display:none;fill:#000b13;fill-opacity:1;stroke:none;stroke-opacity:1"
       id="rect1458"
       width="1767.7676"
       height="1825.2188"
       x="-30.550781"
       y="-30.25" /><rect
       style="display:none;fill:url(#radialGradient961);fill-opacity:1;stroke:none;stroke-opacity:1"
       id="rect951"
       width="1767.7676"
       height="1825.2188"
       x="-30.550781"
       y="-30.25"
       inkscape:label="fondo" /><g
       id="g1382"
       style="display:none;stroke:none"><path
         id="path963"
         style="display:inline;fill:#002144;fill-opacity:1;stroke:none;stroke-width:1.14524"
         inkscape:label="contorno"
         d="m 35.271484,708.38477 77.626956,-60.00391 115.58008,37.02148 A 655.16113,655.16113 0 0 1 274.00586,576.39453 L 249.26562,507.3125 378.80859,327.4375 223.52344,332.05664 A 836.35724,836.35724 0 0 0 35.271484,708.38477 Z" /><path
         id="path1389"
         style="display:inline;fill:#00c487;fill-opacity:1;stroke:none;stroke-width:1.14524"
         inkscape:label="contorno"
         d="m 210.27734,757.00391 a 655.16113,655.16113 0 0 1 18.20118,-71.60157 l -28.64844,-9.17578 -7.74414,64.76563 z" /><path
         id="path1404"
         style="display:inline;fill:#00c487;fill-opacity:1;stroke:none;stroke-width:1.14524"
         inkscape:label="contorno"
         d="m 739.93164,1710.9922 a 836.35724,836.35724 0 0 0 113.40234,7.7246 836.35724,836.35724 0 0 0 482.41402,-153.1523 l -0.789,-160.9161 -47.0254,-32.0254 A 655.16113,655.16113 0 0 1 861.625,1537.4688 l 114.54883,130.6738 -219.34571,14.4648 z" /><path
         id="path1427"
         style="display:inline;fill:#00c487;fill-opacity:1;stroke:none;stroke-width:1.14524"
         inkscape:label="contorno"
         d="m 514.1875,1442.9082 a 655.16113,655.16113 0 0 1 -122.73828,-95.8984 l -25.91797,20.0351 16.48047,206.2168 a 836.35724,836.35724 0 0 0 11.72461,7.8535 L 517.41992,1478.168 Z" /><path
         id="path1425"
         style="display:inline;fill:#002144;fill-opacity:1;stroke:none;stroke-width:1.14524"
         inkscape:label="contorno"
         d="m 514.1875,1442.9082 3.23242,35.2598 -123.68359,102.9472 a 836.35724,836.35724 0 0 0 346.19531,129.877 l 16.89648,-28.3848 219.34571,-14.4648 L 861.625,1537.4688 a 655.16113,655.16113 0 0 1 -8.29102,0.053 655.16113,655.16113 0 0 1 -339.14648,-94.6133 z" /><path
         id="path1420"
         style="display:inline;fill:#00fc9e;fill-opacity:1;stroke:none;stroke-width:1.14524"
         inkscape:label="contorno"
         d="m 204.30859,971.80859 -108.134762,168.17381 -37.929687,1.8477 a 836.35724,836.35724 0 0 0 323.767579,431.4316 l -16.48047,-206.2168 25.91797,-20.0351 A 655.16113,655.16113 0 0 1 204.30859,971.80859 Z" /><path
         id="path1418"
         style="display:inline;fill:#00c487;fill-opacity:1;stroke:none;stroke-width:1.14524"
         inkscape:label="contorno"
         d="M 198.35547,866.89258 155.88672,875.28711 93.595703,1019.5547 16.976562,882.35938 a 836.35724,836.35724 0 0 0 41.267579,259.47072 l 37.929687,-1.8477 108.134762,-168.17381 a 655.16113,655.16113 0 0 1 -6.13671,-89.44921 655.16113,655.16113 0 0 1 0.18359,-15.4668 z" /><path
         id="path1402"
         style="display:inline;fill:#00fc9e;fill-opacity:1;stroke:none;stroke-width:1.14524"
         inkscape:label="contorno"
         d="m 16.976562,882.35938 76.619141,137.19532 62.291017,-144.26759 42.46875,-8.39453 a 655.16113,655.16113 0 0 1 11.92187,-109.88867 l -18.1914,-16.01172 7.74414,-64.76563 -86.93164,-27.8457 -77.626956,60.00391 A 836.35724,836.35724 0 0 0 16.976562,882.35938 Z" /><path
         id="path1396"
         style="display:inline;fill:#002144;fill-opacity:1;stroke:none;stroke-width:1.14524"
         inkscape:label="contorno"
         d="m 1626.3574,1201.6191 -98.3125,2.9942 -63.457,-86.4492 a 655.16113,655.16113 0 0 1 -176.6543,254.4589 l 47.0254,32.0254 0.789,160.9161 a 836.35724,836.35724 0 0 0 290.6094,-363.9454 z" /><path
         id="path1394"
         style="display:inline;fill:#00c487;fill-opacity:1;stroke:none;stroke-width:1.14524"
         inkscape:label="contorno"
         d="m 1505.3887,946.06445 44.2558,-79.3789 -52.6133,-106.3418 a 655.16113,655.16113 0 0 1 11.4629,122.01563 655.16113,655.16113 0 0 1 -3.1054,63.70507 z" /><path
         id="path1443"
         style="display:inline;fill:#00c487;fill-opacity:1;stroke:none;stroke-width:1.14524"
         inkscape:label="contorno"
         d="m 1675.6426,1035.0059 -38.6231,-41.62113 -141.9179,20.76363 a 655.16113,655.16113 0 0 1 -30.5137,104.0157 l 63.457,86.4492 98.3125,-2.9942 a 836.35724,836.35724 0 0 0 49.2852,-166.6132 z" /><path
         id="path1441"
         style="display:inline;fill:#00fc9e;fill-opacity:0.980392;stroke:none;stroke-width:1.14524"
         inkscape:label="contorno"
         d="m 1672.8574,715.41211 -29.7168,29.02344 -156.7656,-30.87305 a 655.16113,655.16113 0 0 1 10.6562,46.78125 l 52.6133,106.3418 -44.2558,79.3789 a 655.16113,655.16113 0 0 1 -10.2871,68.08395 l 141.9179,-20.76363 38.6231,41.62113 a 836.35724,836.35724 0 0 0 14.0488,-152.64652 836.35724,836.35724 0 0 0 -16.834,-166.94727 z" /><path
         id="path1439"
         style="display:inline;fill:#00c487;fill-opacity:1;stroke:none;stroke-width:1.14524"
         inkscape:label="contorno"
         d="m 1085.2383,254.10352 -10.2637,11.7246 A 655.16113,655.16113 0 0 1 1486.375,713.5625 l 156.7656,30.87305 29.7168,-29.02344 A 836.35724,836.35724 0 0 0 1641.2559,601.875 L 1568,672 l -17.0176,-154.51953 -136.9355,-73.58203 116.373,-52.50586 a 836.35724,836.35724 0 0 0 -79.9336,-94.61328 z" /><path
         id="path1434"
         style="display:inline;fill:#002144;fill-opacity:1;stroke:none;stroke-width:1.14524"
         inkscape:label="contorno"
         d="m 1530.4199,391.39258 -116.373,52.50586 136.9355,73.58203 L 1568,672 l 73.2559,-70.125 a 836.35724,836.35724 0 0 0 -110.836,-210.48242 z" /><path
         id="path1411"
         style="display:inline;fill:#00c487;fill-opacity:1;stroke:none;stroke-width:1.14524"
         inkscape:label="contorno"
         d="M 579.7793,92.003906 A 836.35724,836.35724 0 0 0 223.52344,332.05664 l 155.28515,-4.61914 -129.54297,179.875 24.74024,69.08203 A 655.16113,655.16113 0 0 1 762.2793,233.55664 l -13.88868,-69.28516 z" /><path
         id="path1409"
         style="display:inline;fill:#00fc9e;fill-opacity:0.980392;stroke:none;stroke-width:1.14524"
         inkscape:label="contorno"
         d="m 579.7793,92.003906 168.61132,72.267574 13.88868,69.28516 a 655.16113,655.16113 0 0 1 90.76172,-6.35742 655.16113,655.16113 0 0 1 0.29296,0 655.16113,655.16113 0 0 1 221.64062,38.6289 l 10.2637,-11.7246 365.248,42.67578 A 836.35724,836.35724 0 0 0 853.33398,46.001953 a 836.35724,836.35724 0 0 0 -0.54296,0 836.35724,836.35724 0 0 0 -273.01172,46.001953 z" /></g><path
       id="path1379"
       style="display:none;fill:#00c487;fill-opacity:1;stroke-width:1.14524"
       inkscape:label="contorno base"
       d="M 852.79102,46.001953 A 836.35724,836.35724 0 0 0 16.976562,882.35938 836.35724,836.35724 0 0 0 853.33398,1718.7168 836.35724,836.35724 0 0 0 1689.6914,882.35938 836.35724,836.35724 0 0 0 853.33398,46.001953 a 836.35724,836.35724 0 0 0 -0.54296,0 z m 0.25,181.197267 a 655.16113,655.16113 0 0 1 0.29296,0 A 655.16113,655.16113 0 0 1 1508.4941,882.35938 655.16113,655.16113 0 0 1 853.33398,1537.5215 655.16113,655.16113 0 0 1 198.17188,882.35938 655.16113,655.16113 0 0 1 853.04102,227.19922 Z"
       sodipodi:insensitive="true" /></g><g
     id="g1578"
     inkscape:groupmode="layer"
     inkscape:label="plantilla cuadriculas"
     transform="matrix(1.3333333,0,0,-1.3333333,0,1764.72)"
     style="display:none"
     sodipodi:insensitive="true"><g
       id="g2532"
       inkscape:groupmode="layer"
       inkscape:label="cuadros"
       style="display:inline"><g
         id="g1296"
         style="display:inline;mix-blend-mode:difference"><g
           id="g1062"><g
             id="g1580"
             transform="translate(1180.1992,1201.9578)"
             style="display:inline" /><g
             id="g1584"
             transform="translate(1180.1992,661.7708)"
             style="display:inline" /><g
             id="g1588"
             transform="translate(1180.1992,931.8645)"
             style="display:inline" /><g
             id="g1592"
             transform="translate(1180.1992,391.678)"
             style="display:inline" /><g
             id="g1596"
             transform="translate(1180.1992,1111.9265)"
             style="display:inline" /><g
             id="g1600"
             transform="translate(1180.1992,571.7405)" /><g
             id="g1604"
             transform="translate(1180.1992,841.8333)" /><g
             id="g1608"
             transform="translate(1180.1992,301.6467)" /><g
             id="g1612"
             transform="translate(1180.1992,1021.8953)" /><g
             id="g1616"
             transform="translate(1180.1992,481.7092)" /><g
             id="g1620"
             transform="translate(1180.1992,751.802)" /><g
             id="g1624"
             transform="translate(1180.1992,211.6155)" /><g
             id="g1628"
             transform="translate(99.8008,1111.9265)" /><g
             id="g1632"
             transform="translate(99.8008,571.7405)" /><g
             id="g1636"
             transform="translate(99.8008,841.8333)" /><g
             id="g1640"
             transform="translate(99.8008,301.6467)" /><g
             id="g1644"
             transform="translate(99.8008,1021.8953)" /><g
             id="g1648"
             transform="translate(99.8008,481.7092)" /><g
             id="g1652"
             transform="translate(99.8008,751.802)" /><g
             id="g1656"
             transform="translate(99.8008,211.6155)" /><g
             id="g1660"
             transform="translate(99.8008,931.8645)" /><g
             id="g1664"
             transform="translate(99.8008,391.678)" /><g
             id="g1668"
             transform="translate(99.8008,661.7708)" /><g
             id="g1672"
             transform="translate(99.8008,121.5842)" /><g
             id="g1678"
             transform="translate(176.9722,1201.9578)" /><g
             id="g1682"
             transform="translate(254.1431,1201.9578)" /><g
             id="g1686"
             transform="translate(331.314,1201.9578)" /><g
             id="g1690"
             transform="translate(408.4849,1201.9578)" /><g
             id="g1694"
             transform="translate(485.6562,1201.9578)" /><g
             id="g1698"
             transform="translate(562.8271,1201.9578)" /><g
             id="g1702"
             transform="translate(639.998,1201.9578)" /><g
             id="g1706"
             transform="translate(717.1689,1201.9578)" /><g
             id="g1710"
             transform="translate(794.3398,1201.9578)" /><g
             id="g1714"
             transform="translate(871.5107,1201.9578)" /><g
             id="g1718"
             transform="translate(948.6816,1201.9578)" /><g
             id="g1722"
             transform="translate(1025.8525,1201.9578)" /><g
             id="g1726"
             transform="translate(1103.0234,1201.9578)"><path
               id="path1728"
               style="fill:none;stroke:#918f90;stroke-width:0.504;stroke-linecap:butt;stroke-linejoin:miter;stroke-miterlimit:10;stroke-dasharray:none;stroke-opacity:1"
               d="M 0,0 V -1080.373 M -77.1709,0 V -1080.373 M -154.3418,0 V -1080.373 M -231.5127,0 V -1080.373 M -308.6836,0 V -1080.373 M -385.8545,0 V -1080.373 M -463.0254,0 V -1080.373 M -540.1963,0 V -1080.373 M -617.3672,0 V -1080.373 M -694.5385,0 V -1080.373 M -771.7094,0 V -1080.373 M -848.8803,0 V -1080.373 M -926.0512,0 v -1080.373 m 1003.2258,2e-4 h -1080.397 V 2e-4 H 77.1746 Z m -1080.3972,-8e-4 77.171,45.016 77.171,-45.016 77.172,45.016 77.172,-45.016 77.17,45.016 77.172,-45.016 77.17,45.016 77.172,-45.016 77.172,45.016 77.171,-45.016 77.172,45.016 77.171,-45.016 77.171,45.016 77.171,-45.016 m -1080.398,540.1866 77.171,45.016 77.171,-45.016 77.172,45.016 77.172,-45.016 77.17,45.016 77.172,-45.016 77.17,45.016 77.172,-45.016 77.172,45.016 77.171,-45.016 77.172,45.016 77.171,-45.016 77.171,45.016 77.171,-45.016 m -1080.398,-270.0928 77.171,45.016 77.171,-45.016 77.172,45.016 77.172,-45.016 77.17,45.016 77.172,-45.016 77.17,45.016 77.172,-45.016 77.172,45.016 77.171,-45.016 77.172,45.016 77.171,-45.016 77.171,45.016 77.171,-45.016 m -1080.398,540.1865 77.171,45.016 77.171,-45.016 77.172,45.016 77.172,-45.016 77.17,45.016 77.172,-45.016 77.17,45.016 77.172,-45.016 77.172,45.016 77.171,-45.016 77.172,45.016 77.171,-45.016 77.171,45.016 77.171,-45.016 m -1080.398,-720.249 77.171,45.016 77.171,-45.016 77.172,45.016 77.172,-45.016 77.17,45.016 77.172,-45.016 77.17,45.016 77.172,-45.016 77.172,45.016 77.171,-45.016 77.172,45.016 77.171,-45.016 77.171,45.016 77.171,-45.016 m -1080.398,540.1865 77.171,45.016 77.171,-45.016 77.172,45.016 77.172,-45.016 77.17,45.016 77.172,-45.016 77.17,45.016 77.172,-45.016 77.172,45.016 77.171,-45.016 77.172,45.016 77.171,-45.016 77.171,45.016 77.171,-45.016 m -1080.398,-270.0928 77.171,45.016 77.171,-45.016 77.172,45.016 77.172,-45.016 77.17,45.016 77.172,-45.016 77.17,45.016 77.172,-45.016 77.172,45.016 77.171,-45.016 77.172,45.016 77.171,-45.016 77.171,45.016 77.171,-45.016 m -1080.398,540.1861 77.171,45.016 77.171,-45.016 77.172,45.016 77.172,-45.016 77.17,45.016 77.172,-45.016 77.17,45.016 77.172,-45.016 77.172,45.016 77.171,-45.016 77.172,45.016 77.171,-45.016 77.171,45.016 77.171,-45.016 m -1080.398,-720.2486 77.171,45.016 77.171,-45.016 77.172,45.016 77.172,-45.016 77.17,45.016 77.172,-45.016 77.17,45.016 77.172,-45.016 77.172,45.016 77.171,-45.016 77.172,45.016 77.171,-45.016 77.171,45.016 77.171,-45.016 m -1080.398,540.1866 77.171,45.016 77.171,-45.016 77.172,45.016 77.172,-45.016 77.17,45.016 77.172,-45.016 77.17,45.016 77.172,-45.016 77.172,45.016 77.171,-45.016 77.172,45.016 77.171,-45.016 77.171,45.016 77.171,-45.016 m -1080.398,-270.0928 77.171,45.015 77.171,-45.015 77.172,45.015 77.172,-45.015 77.17,45.015 77.172,-45.015 77.17,45.015 77.172,-45.015 77.172,45.015 77.171,-45.015 77.172,45.015 77.171,-45.015 77.171,45.015 77.171,-45.015 m -1080.398,540.186 77.171,45.016 77.171,-45.016 77.172,45.016 77.172,-45.016 77.17,45.016 77.172,-45.016 77.17,45.016 77.172,-45.016 77.172,45.016 77.171,-45.016 77.172,45.016 77.171,-45.016 77.171,45.016 77.171,-45.016 m 4e-4,-900.311 -77.172,-45.016 -77.171,45.016 -77.171,-45.016 -77.172,45.016 -77.17,-45.016 -77.172,45.016 -77.172,-45.016 -77.17,45.016 -77.172,-45.016 -77.17,45.016 -77.172,-45.016 -77.172,45.016 -77.171,-45.016 -77.171,45.016 m 1080.398,540.1865 -77.172,-45.016 -77.171,45.016 -77.171,-45.016 -77.172,45.016 -77.17,-45.016 -77.172,45.016 -77.172,-45.016 -77.17,45.016 -77.172,-45.016 -77.17,45.016 -77.172,-45.016 -77.172,45.016 -77.171,-45.016 -77.171,45.016 m 1080.398,-270.0928 -77.172,-45.016 -77.171,45.016 -77.171,-45.016 -77.172,45.016 -77.17,-45.016 -77.172,45.016 -77.172,-45.016 -77.17,45.016 -77.172,-45.016 -77.17,45.016 -77.172,-45.016 -77.172,45.016 -77.171,-45.016 -77.171,45.016 m 1080.398,540.1861 -77.172,-45.015 -77.171,45.015 -77.171,-45.015 -77.172,45.015 -77.17,-45.015 -77.172,45.015 -77.172,-45.015 -77.17,45.015 -77.172,-45.015 -77.17,45.015 -77.172,-45.015 -77.172,45.015 -77.171,-45.015 -77.171,45.015 m 1080.398,-720.2486 -77.172,-45.016 -77.171,45.016 -77.171,-45.016 -77.172,45.016 -77.17,-45.016 -77.172,45.016 -77.172,-45.016 -77.17,45.016 -77.172,-45.016 -77.17,45.016 -77.172,-45.016 -77.172,45.016 -77.171,-45.016 -77.171,45.016 m 1080.398,540.1866 -77.172,-45.016 -77.171,45.016 -77.171,-45.016 -77.172,45.016 -77.17,-45.016 -77.172,45.016 -77.172,-45.016 -77.17,45.016 -77.172,-45.016 -77.17,45.016 -77.172,-45.016 -77.172,45.016 -77.171,-45.016 -77.171,45.016 m 1080.398,-270.0928 -77.172,-45.016 -77.171,45.016 -77.171,-45.016 -77.172,45.016 -77.17,-45.016 -77.172,45.016 -77.172,-45.016 -77.17,45.016 -77.172,-45.016 -77.17,45.016 -77.172,-45.016 -77.172,45.016 -77.171,-45.016 -77.171,45.016 m 1080.398,540.186 -77.172,-45.016 -77.171,45.016 -77.171,-45.016 -77.172,45.016 -77.17,-45.016 -77.172,45.016 -77.172,-45.016 -77.17,45.016 -77.172,-45.016 -77.17,45.016 -77.172,-45.016 -77.172,45.016 -77.171,-45.016 -77.171,45.016 m 1080.398,-720.2485 -77.172,-45.016 -77.171,45.016 -77.171,-45.016 -77.172,45.016 -77.17,-45.016 -77.172,45.016 -77.172,-45.016 -77.17,45.016 -77.172,-45.016 -77.17,45.016 -77.172,-45.016 -77.172,45.016 -77.171,-45.016 -77.171,45.016 m 1080.398,540.1865 -77.172,-45.016 -77.171,45.016 -77.171,-45.016 -77.172,45.016 -77.17,-45.016 -77.172,45.016 -77.172,-45.016 -77.17,45.016 -77.172,-45.016 -77.17,45.016 -77.172,-45.016 -77.172,45.016 -77.171,-45.016 -77.171,45.016 m 1080.398,-270.0937 -77.172,-45.016 -77.171,45.016 -77.171,-45.016 -77.172,45.016 -77.17,-45.016 -77.172,45.016 -77.172,-45.016 -77.17,45.016 -77.172,-45.016 -77.17,45.016 -77.172,-45.016 -77.172,45.016 -77.171,-45.016 -77.171,45.016 M 77.1758,0 0.0038,-45.016 -77.1672,0 -154.3382,-45.016 -231.5102,0 -308.6802,-45.016 -385.8522,0 -463.0242,-45.016 -540.1942,0 -617.3662,-45.016 -694.5362,0 -771.7082,-45.016 -848.8802,0 -926.0512,-45.016 -1003.2222,0" /></g></g></g></g></g><g
     inkscape:groupmode="layer"
     id="layer1"
     inkscape:label="base"
     style="display:none"
     sodipodi:insensitive="true"><path
       style="display:inline;fill:#333333;fill-opacity:1;stroke:#000000;stroke-width:1px;stroke-linecap:butt;stroke-linejoin:miter;stroke-opacity:1"
       d="M 441.75305,1422.5433 441.75252,822.33538 956.2277,1122.44 853.33171,1182.4613 544.64851,1002.3983 V 1362.522 Z"
       id="path2336" /><path
       id="path2346"
       style="fill:#333333;fill-opacity:1;stroke:#000000;stroke-width:1px;stroke-linecap:butt;stroke-linejoin:miter;stroke-opacity:1"
       d="M 956.22852,522.23438 544.64844,762.31641 956.22852,1002.3984 1059.123,1062.4199 1162.0176,1002.3984 956.22852,882.35938 Z M 853.33203,702.29688 V 822.33789 L 750.4375,762.31641 Z" /><path
       style="fill:#333333;fill-opacity:1;stroke:#000000;stroke-width:1px;stroke-linecap:butt;stroke-linejoin:miter;stroke-opacity:1"
       d="m 1059.1242,822.33869 -5e-4,-120.04266 102.8939,-60.02064 205.791,120.04097 -102.8942,60.02126 -102.8968,-60.02026 z"
       id="path2419" /></g><g
     inkscape:groupmode="layer"
     id="layer4"
     inkscape:label="dos triang"
     style="display:none;opacity:1"><path
       id="path1312"
       style="display:none;fill:#ffffff;fill-opacity:1;stroke:none;stroke-width:1px;stroke-linecap:butt;stroke-linejoin:miter;stroke-opacity:1"
       d="M 1110.3255,432.20472 698.74539,672.28675 1110.3255,912.36874 v -120.03902 0 -240.08399 z M 1007.429,612.26722 V 732.30823 L 904.5364,672.28675 Z m -411.5801,120.03906 0.002,480.16792 v 120.041 l 102.89453,-60.0215 102.89453,-60.0195 308.68554,-180.0625 -102.8965,-60.02146 102.8965,60.01956 z m 102.89649,180.06246 205.78906,120.04296 -205.78711,120.041 z" /></g><g
     inkscape:groupmode="layer"
     id="g2435"
     inkscape:label="AR"
     style="display:none"
     sodipodi:insensitive="true"><path
       id="path2449"
       style="display:none;fill:#ffffff;fill-opacity:1;stroke:#000000;stroke-width:0.921803px;stroke-linecap:butt;stroke-linejoin:miter;stroke-opacity:0"
       d="m 1128.6998,928.56023 108.9564,190.67797 109.8041,-0.4907 -163.433,-286.0181 z m 56.1764,-286.99937 -439.22033,1.96076 217.91212,381.35628 55.32611,-95.82764 z m -165.1338,96.31957 -55.32702,95.82928 -54.47718,-95.33964 z M 359.21459,1123.1591 635.85078,644.01017 908.24,1120.7072 798.43378,1121.1976 635.00189,835.1801 469.02036,1122.6685 Z"
       sodipodi:insensitive="true" /></g><path
     id="path1312-8"
     style="opacity:0.998;fill:#ffffff;fill-opacity:1;stroke:#000000;stroke-width:8.18268;stroke-linecap:butt;stroke-linejoin:miter;stroke-miterlimit:4;stroke-dasharray:none;stroke-opacity:1;filter:url(#filter1040)"
     d="M 1110.3255,432.20472 698.74539,672.28675 1110.3255,912.36874 v -120.03902 0 -240.08399 z M 1007.429,612.26722 V 732.30823 L 904.5364,672.28675 Z m -411.5801,120.03906 0.002,480.16792 v 120.041 l 102.89453,-60.0215 102.89453,-60.0195 308.68554,-180.0625 -102.8965,-60.02146 102.8965,60.01956 z m 102.89649,180.06246 205.78906,120.04296 -205.78711,120.041 z"
     transform="matrix(1.8931378,0,0,1.8931378,-761.92442,-788.069)" /><g
     inkscape:groupmode="layer"
     id="g2427"
     inkscape:label="base copia"
     style="display:none"
     sodipodi:insensitive="true"><path
       style="fill:#333333;fill-opacity:1;stroke:#000000;stroke-width:1px;stroke-linecap:butt;stroke-linejoin:miter;stroke-opacity:1"
       d="M 278.74272,1130.5972 578.84623,610.80163 874.34249,1127.9374 755.2213,1128.4694 577.92531,818.18869 397.86346,1130.065 Z"
       id="path2421" /><path
       id="path2423"
       style="fill:#333333;fill-opacity:1;stroke:#000000;stroke-width:1px;stroke-linecap:butt;stroke-linejoin:miter;stroke-opacity:1"
       d="m 1174.446,608.14454 -476.47981,2.1271 236.39781,413.70716 59.09848,103.4274 119.12012,-0.5329 L 994.38351,920.02194 Z M 995.30379,712.63499 935.28328,816.59356 876.18474,713.16617 Z" /><path
       style="display:inline;fill:#333333;fill-opacity:1;stroke:#000000;stroke-width:1px;stroke-linecap:butt;stroke-linejoin:miter;stroke-opacity:1"
       d="m 1113.5041,919.49034 60.0209,-103.96025 119.1191,-0.53245 118.1997,206.85406 -119.1196,0.5328 -59.1011,-103.42746 z"
       id="path2425" /></g></svg>
